<svg height="512pt" viewBox="-50 0 512 512.00116" width="512pt" xmlns="http://www.w3.org/2000/svg"><path d="m230.195312 396.90625c0 65.148438-53.785156 116.25-116.742187 115.074219-61.960937-.863281-112.535156-51.40625-113.4414062-113.367188-.5976568-41.554687 20.8398432-78.117187 53.3554692-98.828125v-238.296875c0-33.578125 27.226562-60.804687 60.804687-60.804687h1.855469c33.578125 0 60.804687 27.226562 60.804687 60.804687v238.296875c32.070313 20.429688 53.363281 56.273438 53.363281 97.121094zm0 0" fill="#eef6ff"/><path d="m230.195312 396.90625c0 63.5625-51.523437 115.09375-115.097656 115.085938v-511.304688h.925782c33.582031 0 60.804687 27.222656 60.804687 60.800781v238.296875c32.074219 20.429688 53.367187 56.273438 53.367187 97.121094zm0 0" fill="#dae2f2"/><path d="m233.523438 181.023438c0 8.722656-7.070313 15.800781-15.804688 15.800781h-86.816406v34.675781h45.925781v31.609375h-45.925781v112.808594c0 8.722656-7.058594 15.792969-15.792969 15.804687h-.011719c-8.722656 0-15.804687-7.082031-15.804687-15.804687v-310.992188c0-8.734375 7.082031-15.804687 15.804687-15.804687h.011719c8.734375.007812 15.792969 7.070312 15.792969 15.804687v100.289063h86.816406c8.734375 0 15.804688 7.070312 15.804688 15.808594zm0 0" fill="#ff946a"/><path d="m233.523438 181.023438c0 8.722656-7.070313 15.800781-15.804688 15.800781h-86.816406v34.675781h45.925781v31.609375h-45.925781v112.808594c0 8.722656-7.058594 15.792969-15.792969 15.804687v-342.601562c8.734375.007812 15.792969 7.070312 15.792969 15.804687v100.289063h86.816406c8.734375 0 15.804688 7.070312 15.804688 15.808594zm0 0" fill="#ff7037"/><path d="m166.386719 396.90625c0 28.320312-22.96875 51.277344-51.289063 51.277344-28.320312 0-51.277344-22.957032-51.277344-51.277344 0-28.332031 22.957032-51.289062 51.277344-51.289062 28.320313 0 51.289063 22.957031 51.289063 51.289062zm0 0" fill="#ff7037"/><path d="m166.386719 396.90625c0 28.320312-22.96875 51.277344-51.289063 51.277344v-102.566406c28.320313 0 51.289063 22.957031 51.289063 51.289062zm0 0" fill="#ff4c04"/><path d="m412.769531 126.078125c0 44.824219-35.871093 81.273437-80.457031 82.21875-.589844.011719-1.191406.023437-1.785156.023437-45.414063 0-82.242188-36.828124-82.242188-82.242187 0-31.890625 40.523438-91.027344 64.675782-123.429687 3.574218-4.789063 11.160156-2.7070318 11.796874 3.230468 2.027344 18.851563 4.960938 37.15625 7.554688 51.5625 1.433594 7.960938 2.777344 14.71875 3.800781 19.726563.988281 4.8125 6.234375 7.417969 10.671875 5.289062 7.257813-3.480469 18.496094-9.011719 31.421875-15.882812 5.335938-2.84375 11.980469-.875 14.894531 4.414062 11.34375 20.617188 19.667969 40.652344 19.667969 55.089844zm0 0" fill="#ff7037"/><path d="m412.769531 126.078125c0 44.824219-35.871093 81.273437-80.457031 82.21875v-150.855469c1.4375 7.964844 2.777344 14.722656 3.800781 19.726563.988281 4.8125 6.234375 7.417969 10.671875 5.289062 7.257813-3.480469 18.5-9.007812 31.421875-15.878906 5.335938-2.84375 11.980469-.878906 14.894531 4.414063 11.34375 20.613281 19.667969 40.648437 19.667969 55.085937zm0 0" fill="#ff4c04"/><path d="m338.492188 195.191406c-2.070313.316406-4.140626.476563-6.179688.488282-19.988281.082031-37.597656-14.472657-40.75-34.835938-2.433594-15.757812 13.070312-48.078125 22.527344-65.941406 1.398437-2.636719 5.3125-2.183594 6.074218.695312 3.789063 14.234375 8.566407 27.644532 11.058594 34.359375.238282.636719.613282 1.160157 1.089844 1.558594 1.242188 1.058594 3.117188 1.25 4.585938.238281 3.320312-2.273437 8.453124-5.859375 14.3125-10.25 2.421874-1.808594 5.859374-1.34375 7.699218 1.046875 7.179688 9.316407 12.824219 18.578125 13.925782 25.710938 3.472656 22.445312-11.898438 43.460937-34.34375 46.929687zm0 0" fill="#ffe477"/><path d="m338.492188 195.191406c-2.070313.316406-4.140626.476563-6.179688.488282v-64.164063c1.242188 1.058594 3.121094 1.25 4.585938.238281 3.320312-2.273437 8.453124-5.859375 14.3125-10.25 2.421874-1.808594 5.859374-1.34375 7.703124 1.046875 7.175782 9.316407 12.820313 18.578125 13.925782 25.710938 3.46875 22.445312-11.902344 43.460937-34.347656 46.929687zm0 0" fill="#eebf00"/></svg>